<?xml version="1.0" encoding="utf-8"?>
<!-- Generator: Adobe Illustrator 16.0.4, SVG Export Plug-In . SVG Version: 6.00 Build 0)  -->
<!DOCTYPE svg PUBLIC "-//W3C//DTD SVG 1.0//EN" "http://www.w3.org/TR/2001/REC-SVG-20010904/DTD/svg10.dtd">
<svg version="1.0" id="Layer_1" xmlns="http://www.w3.org/2000/svg" xmlns:xlink="http://www.w3.org/1999/xlink" x="0px" y="0px"
	 width="100px" height="100px" viewBox="0 0 100 100" enable-background="new 0 0 100 100" xml:space="preserve">
<g>
	<path fill="#FFFFFF" d="M35.934,40.63c0.274,0.148,0.716,0.387,0.897,0.524c0.365,0.698,0.714,1.401,1.06,2.098
		c2.478,4.993,5.039,10.157,12.032,10.157c0.118,0,0.232-0.017,0.343-0.043c0.11,0.026,0.225,0.043,0.343,0.043
		c6.993,0,9.555-5.164,12.032-10.157c0.346-0.696,0.694-1.399,1.06-2.098c0.182-0.138,0.623-0.376,0.897-0.524
		c0.964-0.521,1.874-1.013,2.229-1.905c0.975-2.455,1.503-6,1.595-8.423c0.041-1.086-0.776-1.542-2.26-2.37
		c-0.203-0.114-0.484-0.271-0.719-0.408c0.011-2.052,0.066-3.529,0.108-4.639c0.055-1.442,0.087-2.351-0.034-3.115
		C64.494,13.312,59.478,10,50.608,10c-0.118,0-0.567,0-0.686,0c-8.869,0-13.886,3.312-14.909,9.769
		c-0.121,0.766-0.089,1.655-0.034,3.097c0.042,1.109,0.098,2.597,0.108,4.648c-0.234,0.138-0.516,0.299-0.719,0.413
		c-1.483,0.828-2.301,1.287-2.26,2.372c0.092,2.424,0.62,5.97,1.596,8.425C34.06,39.616,34.97,40.109,35.934,40.63z M35.831,30.551
		c1.455-0.812,2.256-1.259,2.259-2.309c0-2.488-0.065-4.212-0.112-5.471c-0.048-1.259-0.076-2.058-0.001-2.533
		C38.467,17.147,40.238,13,49.923,13c0.118,0,0.567,0,0.686,0c9.685,0,11.456,4.147,11.946,7.239
		c0.075,0.475,0.047,1.254-0.001,2.513c-0.047,1.259-0.112,2.992-0.112,5.484c0.003,1.046,0.804,1.498,2.259,2.31
		c0.193,0.108,0.455,0.257,0.682,0.389c-0.143,1.998-0.572,4.641-1.276,6.507c-0.202,0.151-0.651,0.395-0.935,0.547
		c-0.859,0.465-1.672,0.904-2.061,1.644c-0.4,0.76-0.78,1.527-1.157,2.286c-2.611,5.264-4.46,8.49-9.345,8.49
		c-0.118,0-0.232,0.017-0.343,0.043c-0.11-0.026-0.225-0.043-0.343-0.043c-4.885,0-6.733-3.227-9.345-8.49
		c-0.377-0.759-0.757-1.525-1.157-2.286c-0.389-0.738-1.201-1.178-2.061-1.643c-0.283-0.152-0.732-0.396-0.935-0.547
		c-0.704-1.866-1.134-4.508-1.276-6.506C35.376,30.806,35.638,30.659,35.831,30.551z"/>
	<path fill="#FFFFFF" d="M88.626,75.269c0.021-0.101,0.032-0.203,0.032-0.31c0-7.23-5.438-10.881-9.529-12.998
		c-3.951-2.045-6.53-2.724-8.805-3.321c-2.479-0.652-4.437-1.167-7.559-3.388c-0.674-0.48-1.61-0.322-2.092,0.354
		c-0.479,0.675-0.322,1.611,0.354,2.092c3.567,2.537,5.979,3.172,8.533,3.844c2.125,0.559,4.533,1.191,8.189,3.084
		c5.417,2.803,7.857,5.958,7.903,10.211c-9.127,8.604-21.396,13.156-35.546,13.156c-12.879,0-25.171-4.749-34.699-13.369
		c0.125-4.146,2.571-7.242,7.896-9.998c3.656-1.893,6.064-2.525,8.189-3.084c2.554-0.672,4.966-1.307,8.533-3.844
		c0.676-0.48,0.833-1.417,0.354-2.092c-0.481-0.676-1.418-0.834-2.092-0.354c-3.122,2.221-5.079,2.735-7.559,3.388
		c-2.274,0.598-4.854,1.276-8.805,3.321c-4.091,2.117-9.529,5.768-9.529,12.998c0,0.081,0.012,0.159,0.024,0.236
		c-0.027,0.434,0.112,0.873,0.456,1.191c10.151,9.419,23.373,14.605,37.231,14.605c15.185,0,28.36-4.991,38.104-14.435
		C88.571,76.21,88.692,75.729,88.626,75.269z"/>
</g>
</svg>
