<?xml version="1.0" encoding="utf-8"?>
<!-- Generator: Adobe Illustrator 16.0.4, SVG Export Plug-In . SVG Version: 6.00 Build 0)  -->
<!DOCTYPE svg PUBLIC "-//W3C//DTD SVG 1.0//EN" "http://www.w3.org/TR/2001/REC-SVG-20010904/DTD/svg10.dtd">
<svg version="1.0" id="Layer_1" xmlns="http://www.w3.org/2000/svg" xmlns:xlink="http://www.w3.org/1999/xlink" x="0px" y="0px"
	 width="100px" height="100px" viewBox="0 0 100 100" enable-background="new 0 0 100 100" xml:space="preserve">
<path fill="#FFFFFF" d="M91.221,14.616c-2.133,0-4.124,0.832-5.606,2.342L36.261,66.337L14.385,44.386
	c-1.484-1.484-3.466-2.299-5.585-2.299c-2.092,0-4.07,0.797-5.57,2.244l-0.064,0.062l-0.062,0.065
	c-3.001,3.165-3.001,7.939-0.001,11.105l0.037,0.039l0.038,0.038l27.395,27.395l0.467,0.467l0.215,0.106
	c1.4,1.15,3.149,1.776,5.002,1.776c2.115,0,4.094-0.814,5.574-2.296l33.716-33.715L96.84,28.137l0.026-0.027l0.027-0.028
	c3.007-3.116,2.983-8.119-0.052-11.152C95.313,15.429,93.326,14.616,91.221,14.616L91.221,14.616z"/>
</svg>
