<?xml version="1.0" encoding="utf-8"?>
<!-- Generator: Adobe Illustrator 16.0.4, SVG Export Plug-In . SVG Version: 6.00 Build 0)  -->
<!DOCTYPE svg PUBLIC "-//W3C//DTD SVG 1.0//EN" "http://www.w3.org/TR/2001/REC-SVG-20010904/DTD/svg10.dtd">
<svg version="1.0" id="Layer_1" xmlns="http://www.w3.org/2000/svg" xmlns:xlink="http://www.w3.org/1999/xlink" x="0px" y="0px"
	 width="100px" height="100px" viewBox="0 0 100 100" enable-background="new 0 0 100 100" xml:space="preserve">
<g>
	<g>
		<path fill="#FFFFFF" d="M80.258,22.24H20.246c-0.829,0-1.5-0.672-1.5-1.5s0.671-1.5,1.5-1.5h60.012c0.828,0,1.5,0.672,1.5,1.5
			S81.086,22.24,80.258,22.24z"/>
	</g>
	<g>
		<path fill="#FFFFFF" d="M80.258,40.237H20.246c-0.829,0-1.5-0.672-1.5-1.5s0.671-1.5,1.5-1.5h60.012c0.828,0,1.5,0.672,1.5,1.5
			S81.086,40.237,80.258,40.237z"/>
	</g>
	<g>
		<path fill="#FFFFFF" d="M80.258,58.226H20.246c-0.829,0-1.5-0.672-1.5-1.5s0.671-1.5,1.5-1.5h60.012c0.828,0,1.5,0.672,1.5,1.5
			S81.086,58.226,80.258,58.226z"/>
	</g>
</g>
<g>
	<path fill="#FFFFFF" d="M20.934,65.829c0.234,0,0.405,0.037,0.512,0.112c0.106,0.074,0.17,0.123,0.192,0.144l5.888,5.888
		c0.234,0.235,0.395,0.353,0.48,0.353c0.085,0,0.234-0.106,0.448-0.32l5.888-5.888c0.213-0.192,0.458-0.288,0.736-0.288
		c0.554,0,0.853,0.299,0.896,0.896v13.952c-0.043,0.598-0.342,0.896-0.896,0.896c-0.576,0-0.875-0.299-0.896-0.896V69.541
		c-0.021-0.192-0.096-0.288-0.224-0.288s-0.288,0.096-0.48,0.288l-4.96,4.96c-0.256,0.256-0.427,0.384-0.512,0.384
		c-0.064,0-0.224-0.128-0.48-0.384c-1.792-1.792-3.467-3.456-5.024-4.992c-0.213-0.213-0.374-0.319-0.48-0.319
		c-0.128,0-0.192,0.117-0.192,0.352v11.136c-0.043,0.598-0.342,0.896-0.896,0.896c-0.576,0-0.875-0.299-0.896-0.896V66.725
		C20.059,66.128,20.358,65.829,20.934,65.829z"/>
	<path fill="#FFFFFF" d="M43.046,67.528c-0.401,0.038-0.834,0.096-1.133,0.242c-0.264,0.131-0.518,0.328-0.724,0.538
		c-0.512,0.523-0.768,1.147-0.768,1.872c0,0.726,0.256,1.35,0.768,1.872c0.512,0.523,1.13,0.784,1.856,0.784
		c0.64,0,0.96,0.288,0.96,0.864c0,0.533-0.299,0.821-0.896,0.864c-0.747,0-1.381,0.256-1.904,0.768
		c-0.523,0.512-0.784,1.142-0.784,1.888c0,0.726,0.256,1.35,0.768,1.872c0.512,0.523,1.13,0.784,1.856,0.784
		c0.619,0,0.928,0.277,0.928,0.832c0,0.647-0.598,0.899-1.143,0.871c-0.658-0.033-1.359-0.218-1.925-0.561
		c-0.33-0.199-0.66-0.454-0.932-0.727c-0.854-0.853-1.28-1.877-1.28-3.072c0-1.45,0.608-2.624,1.824-3.52
		c-1.216-0.896-1.824-2.069-1.824-3.521c0-1.194,0.427-2.218,1.28-3.071c0.756-0.756,1.696-1.173,2.755-1.278
		c0.616-0.062,1.246,0.109,1.246,0.83C43.975,67.265,43.672,67.469,43.046,67.528z"/>
	<path fill="#FFFFFF" d="M47.174,65.797c0.256,0,0.491,0.096,0.704,0.288c7.659,7.638,11.659,11.627,12,11.968
		c0.171,0.171,0.288,0.256,0.353,0.256c0.106,0,0.148-0.085,0.128-0.256V66.693c0.043-0.598,0.341-0.896,0.896-0.896
		c0.576,0,0.886,0.299,0.929,0.896v13.951c-0.043,0.513-0.277,0.812-0.704,0.896c-0.086,0.021-0.171,0.032-0.256,0.032
		c-0.235,0-0.459-0.097-0.672-0.288L48.742,69.477c-0.213-0.213-0.384-0.319-0.512-0.319s-0.182,0.118-0.16,0.353v11.165
		c-0.043,0.599-0.341,0.898-0.896,0.898c-0.576,0-0.875-0.299-0.896-0.898V66.695C46.299,66.118,46.598,65.818,47.174,65.797z"/>
	<path fill="#FFFFFF" d="M65.895,65.829c0.533,0,0.821,0.288,0.864,0.864v6.976c0,1.707,0.597,3.163,1.792,4.368
		c1.194,1.205,2.645,1.808,4.352,1.808s3.173-0.607,4.4-1.823c1.227-1.217,1.84-2.667,1.84-4.353v-6.976
		c0.042-0.576,0.33-0.864,0.864-0.864c0.532,0,0.82,0.288,0.863,0.864v6.976c0,2.176-0.784,4.037-2.352,5.584
		c-1.568,1.547-3.44,2.32-5.616,2.32s-4.032-0.773-5.568-2.32c-1.535-1.547-2.304-3.408-2.304-5.584v-6.976
		C65.073,66.117,65.361,65.829,65.895,65.829z"/>
</g>
</svg>
