<?xml version="1.0" encoding="utf-8"?>
<!-- Generator: Adobe Illustrator 16.0.4, SVG Export Plug-In . SVG Version: 6.00 Build 0)  -->
<!DOCTYPE svg PUBLIC "-//W3C//DTD SVG 1.0//EN" "http://www.w3.org/TR/2001/REC-SVG-20010904/DTD/svg10.dtd">
<svg version="1.0" id="Layer_1" xmlns="http://www.w3.org/2000/svg" xmlns:xlink="http://www.w3.org/1999/xlink" x="0px" y="0px"
	 width="100px" height="100px" viewBox="0 0 100 100" enable-background="new 0 0 100 100" xml:space="preserve">
<g>
	<path fill="#FFFFFF" d="M79.5,49.742c-0.828,0-1.5,0.671-1.5,1.5V82H61V60.742C61,59.914,60.584,59,59.756,59h-18
		C40.927,59,40,59.914,40,60.742V82H22V51.242c0-0.829-0.671-1.5-1.5-1.5s-1.5,0.671-1.5,1.5v32.5C19,84.57,19.927,85,20.756,85
		h20.5c0.543,0,0.886-0.17,1.149-0.602C42.837,84.135,43,83.785,43,83.242V62h15v21.242c0,0.543,0.419,0.893,0.851,1.156
		C59.114,84.83,59.713,85,60.256,85h19.5C80.584,85,81,84.57,81,83.742v-32.5C81,50.414,80.328,49.742,79.5,49.742z"/>
	<path fill="#FFFFFF" d="M89.486,45.854l-37.961-33.96c-0.569-0.509-1.432-0.509-2.001,0.002l-39,35
		c-0.617,0.553-0.668,1.501-0.114,2.118c0.296,0.33,0.706,0.498,1.117,0.498c0.357,0,0.715-0.126,1.001-0.384l38-34.102
		l36.959,33.063c0.617,0.553,1.566,0.5,2.117-0.118C90.156,47.354,90.104,46.406,89.486,45.854z"/>
</g>
</svg>
