<?xml version="1.0" encoding="utf-8"?>
<!-- Generator: Adobe Illustrator 16.0.4, SVG Export Plug-In . SVG Version: 6.00 Build 0)  -->
<!DOCTYPE svg PUBLIC "-//W3C//DTD SVG 1.0//EN" "http://www.w3.org/TR/2001/REC-SVG-20010904/DTD/svg10.dtd">
<svg version="1.0" id="Layer_1" xmlns="http://www.w3.org/2000/svg" xmlns:xlink="http://www.w3.org/1999/xlink" x="0px" y="0px"
	 width="100px" height="100px" viewBox="0 0 100 100" enable-background="new 0 0 100 100" xml:space="preserve">
<path fill="#FFFFFF" d="M87.72,18.417c-0.18-0.809-0.981-1.324-1.789-1.139l-9,2c-0.779,0.173-1.274,0.923-1.149,1.701
	c-0.002,0.011-0.006-0.101-0.008-0.09L74.484,29H12.756c-0.457,0-0.889,0.329-1.173,0.687s-0.391,0.885-0.289,1.33l6.875,30.03
	c0.146,0.639,0.69,1.123,1.344,1.176l49.198,3.895l-0.905,5.79c-0.069,0.443,0.067,0.87,0.334,1.189
	c-3.051,0.201-5.558,2.284-6.212,5.189C61.725,78.184,61.499,78,61.256,78H40.208c-0.747-3-3.427-5.045-6.619-5.045
	c-3.768,0-6.834,3.126-6.834,6.894s3.066,6.742,6.834,6.742c3.312,0,6.078-2.591,6.7-5.591h20.966c0.219,0,0.425,0.072,0.612-0.013
	c0.569,3.197,3.363,5.694,6.722,5.694c3.768,0,6.833-3.035,6.833-6.803c0-3.192-2.204-5.857-5.169-6.604
	c0.268-0.225,0.458-0.535,0.517-0.907l7.891-50.406l7.92-1.758C87.39,20.024,87.899,19.226,87.72,18.417z M33.59,83.742
	c-2.114,0-3.834-1.72-3.834-3.833s1.72-3.833,3.834-3.833c2.114,0,3.833,1.72,3.833,3.833S35.704,83.742,33.59,83.742z
	 M20.847,59.213L14.639,32h59.377l-4.839,30.971L20.847,59.213z M72.423,79.909c0,2.113-1.72,3.833-3.833,3.833
	c-2.114,0-3.834-1.72-3.834-3.833s1.72-3.833,3.834-3.833C70.703,76.076,72.423,77.796,72.423,79.909z"/>
</svg>
