<?xml version="1.0" encoding="utf-8"?>
<!-- Generator: Adobe Illustrator 16.0.4, SVG Export Plug-In . SVG Version: 6.00 Build 0)  -->
<!DOCTYPE svg PUBLIC "-//W3C//DTD SVG 1.0//EN" "http://www.w3.org/TR/2001/REC-SVG-20010904/DTD/svg10.dtd">
<svg version="1.0" id="Layer_1" xmlns="http://www.w3.org/2000/svg" xmlns:xlink="http://www.w3.org/1999/xlink" x="0px" y="0px"
	 width="100px" height="100px" viewBox="0 0 100 100" enable-background="new 0 0 100 100" xml:space="preserve">
<path fill="#FFFFFF" d="M83.256,48H21.604l31.158-31.036c0.586-0.586,0.586-1.475,0-2.061s-1.535-0.556-2.121,0.03L17.195,48.393
	c-0.281,0.281-0.439,0.67-0.439,1.068s0.158,0.783,0.439,1.064l32.891,32.893c0.293,0.293,0.677,0.44,1.061,0.44
	s0.768-0.146,1.061-0.438c0.586-0.586,0.586-1.656,0-2.242L22.15,51h61.105c0.828,0,1.5-0.672,1.5-1.5S84.084,48,83.256,48z"/>
</svg>
