<?xml version="1.0" encoding="utf-8"?>
<!-- Generator: Adobe Illustrator 16.0.4, SVG Export Plug-In . SVG Version: 6.00 Build 0)  -->
<!DOCTYPE svg PUBLIC "-//W3C//DTD SVG 1.0//EN" "http://www.w3.org/TR/2001/REC-SVG-20010904/DTD/svg10.dtd">
<svg version="1.0" id="Layer_1" xmlns="http://www.w3.org/2000/svg" xmlns:xlink="http://www.w3.org/1999/xlink" x="0px" y="0px"
	 width="100px" height="100px" viewBox="0 0 100 100" enable-background="new 0 0 100 100" xml:space="preserve">
<path fill="#FFFFFF" d="M89.414,86.586l-20-20c-0.008-0.008-0.023-0.013-0.031-0.021C74.727,60.56,78,52.672,78,44
	c0-18.777-15.224-34-34-34c-18.777,0-34,15.223-34,34c0,18.776,15.223,34,34,34c8.672,0,16.558-3.273,22.565-8.617
	c0.008,0.008,0.013,0.023,0.021,0.031l20,20C86.977,89.805,87.49,90,88,90c0.511,0,1.023-0.195,1.414-0.586
	C90.195,88.633,90.195,87.367,89.414,86.586z M44,74c-16.542,0-30-13.458-30-30c0-16.542,13.458-30,30-30c16.542,0,30,13.458,30,30
	C74,60.542,60.542,74,44,74z"/>
</svg>
